<svg width="400" height="400" viewBox="0 0 400 400" fill="none" xmlns="http://www.w3.org/2000/svg">
<rect width="400" height="400" rx="40" fill="#D0D0D0"/>
<path d="M202.619 108.182H224.636V238.153C224.636 249.754 222.506 259.608 218.244 267.717C213.983 275.825 207.976 281.98 200.222 286.183C192.469 290.385 183.325 292.486 172.79 292.486C162.847 292.486 153.998 290.681 146.245 287.07C138.492 283.401 132.396 278.192 127.957 271.445C123.518 264.698 121.298 256.679 121.298 247.386H142.96C142.96 252.536 144.233 257.034 146.778 260.881C149.382 264.669 152.933 267.628 157.431 269.759C161.929 271.889 167.049 272.955 172.79 272.955C179.123 272.955 184.509 271.623 188.947 268.96C193.386 266.296 196.76 262.39 199.068 257.241C201.436 252.032 202.619 245.67 202.619 238.153V108.182Z" fill="black"/>
</svg>
